<svg id="Слой_1" data-name="Слой 1" xmlns="http://www.w3.org/2000/svg" viewBox="0 0 17 15"><defs><style>.cls-1{fill:#fff;}</style></defs><title>attention_ul</title><polygon class="cls-1" points="8.43 8.3 6.43 5.75 8.39 0 8.43 8.3"/><polygon class="cls-1" points="8.43 8.3 10.4 5.73 8.39 0 8.43 8.3"/><polygon class="cls-1" points="8.44 8.3 6.44 5.75 8.4 0 8.44 8.3"/><polygon class="cls-1" points="8.43 8.3 5.22 9.3 0 5.78 8.43 8.3"/><polygon class="cls-1" points="8.43 8.3 6.43 5.75 0 5.78 8.43 8.3"/><polygon class="cls-1" points="8.43 8.3 8.45 11.47 3.26 15.04 8.43 8.3"/><polygon class="cls-1" points="8.43 8.3 5.22 9.3 3.26 15.04 8.43 8.3"/><polygon class="cls-1" points="8.43 8.3 11.65 9.27 13.66 15 8.43 8.3"/><polygon class="cls-1" points="8.43 8.3 8.45 11.47 13.66 15 8.43 8.3"/><polygon class="cls-1" points="8.43 8.3 10.4 5.73 16.83 5.7 8.43 8.3"/><polygon class="cls-1" points="8.43 8.3 11.65 9.27 16.83 5.7 8.43 8.3"/><polygon class="cls-1" points="8.44 8.29 6.44 5.73 0.01 5.76 8.44 8.29"/><polygon class="cls-1" points="8.44 8.29 5.23 9.28 0.01 5.76 8.44 8.29"/><polygon class="cls-1" points="8.51 8.34 8.34 11.37 3.31 15.01 8.51 8.34"/></svg>