<svg id="Слой_1" data-name="Слой 1" xmlns="http://www.w3.org/2000/svg" viewBox="0 0 20 18.06"><defs><style>.cls-1{fill:#fff;}</style></defs><title>attention_pic</title><path class="cls-1" d="M19.49,14,12.34,1.6A2.77,2.77,0,0,0,10,0,2.77,2.77,0,0,0,7.69,1.6L.55,14a2.77,2.77,0,0,0-.22,2.81A2.77,2.77,0,0,0,2.87,18H17.16a2.77,2.77,0,0,0,2.55-1.21A2.77,2.77,0,0,0,19.49,14Zm-.63,2.32a1.84,1.84,0,0,1-1.69.72H2.87a1.84,1.84,0,0,1-1.69-.72,1.84,1.84,0,0,1,.22-1.82L8.55,2.1A1.84,1.84,0,0,1,10,1a1.84,1.84,0,0,1,1.46,1.1l7.15,12.38A1.84,1.84,0,0,1,18.85,16.29Z"/><circle class="cls-1" cx="10.02" cy="14.1" r="1.75"/><path class="cls-1" d="M10,11.78A.86.86,0,0,0,11,11a25.38,25.38,0,0,0,.7-4.83c0-1.12-.48-1.83-1.7-1.83s-1.7.7-1.7,1.83A25.37,25.37,0,0,0,9,11,.86.86,0,0,0,10,11.78Z"/></svg>