<svg id="Слой_1" data-name="Слой 1" xmlns="http://www.w3.org/2000/svg" xmlns:xlink="http://www.w3.org/1999/xlink" viewBox="0 0 8.43 15"><defs><style>.cls-1{fill:url(#Безымянный_градиент);}.cls-2{fill:#d9584e;}.cls-3{fill:url(#Безымянный_градиент_2);}.cls-4{fill:url(#Безымянный_градиент_3);}.cls-5{fill:url(#Безымянный_градиент_4);}.cls-6{fill:none;}.cls-7{fill:url(#Безымянный_градиент_7);}.cls-8{fill:url(#Безымянный_градиент_8);}</style><linearGradient id="Безымянный_градиент" x1="36.96" y1="9.43" x2="40.97" y2="11.93" gradientTransform="matrix(1, 0, 0, -1, -30.8, 14.98)" gradientUnits="userSpaceOnUse"><stop offset="0" stop-color="#2b4b8c"/><stop offset="0.53" stop-color="#4071b8"/><stop offset="1" stop-color="#61acec"/></linearGradient><linearGradient id="Безымянный_градиент_2" x1="546.36" y1="9.89" x2="550.36" y2="7.39" gradientTransform="translate(557.81 12.15) rotate(180)" gradientUnits="userSpaceOnUse"><stop offset="0" stop-color="#aa2533"/><stop offset="0.46" stop-color="#aa2533"/><stop offset="1" stop-color="#862331"/></linearGradient><linearGradient id="Безымянный_градиент_3" x1="34.25" y1="6.36" x2="35.25" y2="8.42" gradientTransform="matrix(1, 0, 0, -1, -30.8, 14.98)" gradientUnits="userSpaceOnUse"><stop offset="0" stop-color="#2b4b8c"/><stop offset="1" stop-color="#4071b8"/></linearGradient><linearGradient id="Безымянный_градиент_4" x1="3.26" y1="4.33" x2="8.43" y2="4.33" gradientTransform="matrix(1, 0, 0, -1, 0, 16)" gradientUnits="userSpaceOnUse"><stop offset="0.15" stop-color="#d9584e"/><stop offset="1" stop-color="#aa2533"/></linearGradient><linearGradient id="Безымянный_градиент_7" x1="693.36" y1="4.2" x2="696.58" y2="9.77" gradientTransform="translate(697.73 11.48) rotate(180)" gradientUnits="userSpaceOnUse"><stop offset="0" stop-color="#862331"/><stop offset="0.66" stop-color="#aa2533"/><stop offset="1" stop-color="#d60700"/></linearGradient><linearGradient id="Безымянный_градиент_8" x1="43.93" y1="9.03" x2="52.35" y2="9.03" gradientTransform="matrix(-0.78, 0.57, 0.54, 0.74, 38.53, -22.39)" gradientUnits="userSpaceOnUse"><stop offset="0.49" stop-color="#d9584e"/><stop offset="1" stop-color="#da0700"/></linearGradient></defs><title>background_star</title><polygon class="cls-1" points="8.43 8.3 6.43 5.75 8.39 0 8.43 8.3"/><polygon class="cls-2" points="8.43 8.3 10.4 5.73 8.39 0 8.43 8.3"/><polygon class="cls-3" points="8.44 8.3 6.44 5.75 8.4 0 8.44 8.3"/><polygon class="cls-4" points="8.43 8.3 5.22 9.3 0 5.78 8.43 8.3"/><polygon class="cls-2" points="8.43 8.3 6.43 5.75 0 5.78 8.43 8.3"/><polygon class="cls-2" points="8.43 8.3 8.45 11.47 3.26 15.04 8.43 8.3"/><polygon class="cls-5" points="8.43 8.3 5.22 9.3 3.26 15.04 8.43 8.3"/><polygon class="cls-6" points="8.44 8.29 6.44 5.73 0.01 5.76 8.44 8.29"/><polygon class="cls-7" points="8.44 8.29 5.23 9.28 0.01 5.76 8.44 8.29"/><polygon class="cls-8" points="8.51 8.34 8.34 11.37 3.31 15.01 8.51 8.34"/></svg>