<svg id="Слой_1" data-name="Слой 1" xmlns="http://www.w3.org/2000/svg" viewBox="0 0 18.1 17.93"><defs><style>.cls-1{fill:#d9584e;}</style></defs><title>geo_pic</title><path class="cls-1" d="M7.08,7.56A2.54,2.54,0,1,1,6.16,11h0A2.54,2.54,0,0,1,7.08,7.56Z"/><path class="cls-1" d="M11.27,6.51l-.35-2.64.93-1.06.32,2.81Zm1.32-1.37L12.25,2.5l.93-1.06.32,2.8ZM14,3.7l-.35-2.64L14.53,0l.32,2.81Z"/><path class="cls-1" d="M14.19,7.43l-2.65-.2.85-1,2.81.16Zm1.43-1.64L13,5.63l.84-1,2.81.12ZM17.1,4.23l-2.66-.17.84-1,2.82.13Z"/><path class="cls-1" d="M4.24,16.82A8.48,8.48,0,0,1,9.88,1.13l.06,2a6.56,6.56,0,1,0,5,5.37l1.92-.07A8.47,8.47,0,0,1,4.24,16.82Z"/></svg>