<svg id="Слой_1" data-name="Слой 1" xmlns="http://www.w3.org/2000/svg" xmlns:xlink="http://www.w3.org/1999/xlink" viewBox="0 0 54.4 8.23"><defs><style>.cls-1{fill:#d9584e;}.cls-2{fill:url(#linear-gradient);}.cls-3{fill:url(#Безымянный_градиент_2);}.cls-4{fill:url(#linear-gradient-2);}.cls-5{fill:url(#Безымянный_градиент_14);}.cls-6{fill:url(#Безымянный_градиент_15);}.cls-7{fill:url(#Безымянный_градиент_10);}.cls-8{fill:none;}.cls-9{fill:url(#linear-gradient-3);}.cls-10{fill:url(#Безымянный_градиент_10-2);}</style><linearGradient id="linear-gradient" x1="73.09" y1="6.68" x2="74.03" y2="6.09" gradientTransform="translate(-23.87 -25.45) rotate(19.29)" gradientUnits="userSpaceOnUse"><stop offset="0" stop-color="#2b4b8c"/><stop offset="0.53" stop-color="#4071b8"/><stop offset="1" stop-color="#61acec"/></linearGradient><linearGradient id="Безымянный_градиент_2" x1="433.77" y1="6.09" x2="434.71" y2="6.68" gradientTransform="matrix(-0.94, -0.33, -0.33, 0.94, 455.42, 142.29)" gradientUnits="userSpaceOnUse"><stop offset="0" stop-color="#aa2533"/><stop offset="0.46" stop-color="#aa2533"/><stop offset="1" stop-color="#862331"/></linearGradient><linearGradient id="linear-gradient-2" x1="72.44" y1="7.38" x2="72.67" y2="6.9" gradientTransform="translate(-23.87 -25.45) rotate(19.29)" gradientUnits="userSpaceOnUse"><stop offset="0" stop-color="#2b4b8c"/><stop offset="1" stop-color="#4071b8"/></linearGradient><linearGradient id="Безымянный_градиент_14" x1="42.01" y1="6.57" x2="43.22" y2="6.57" gradientTransform="matrix(0.94, 0.33, -0.33, 0.94, 4.37, -14.12)" gradientUnits="userSpaceOnUse"><stop offset="0.15" stop-color="#d9584e"/><stop offset="1" stop-color="#aa2533"/></linearGradient><linearGradient id="Безымянный_градиент_15" x1="43.22" y1="6.56" x2="44.45" y2="6.56" gradientTransform="matrix(0.94, 0.33, -0.33, 0.94, 4.37, -14.12)" gradientUnits="userSpaceOnUse"><stop offset="0" stop-color="#da0700"/><stop offset="0.51" stop-color="#d9584e"/></linearGradient><linearGradient id="Безымянный_градиент_10" x1="73.59" y1="7.04" x2="75.57" y2="7.04" gradientTransform="translate(-23.87 -25.45) rotate(19.29)" gradientUnits="userSpaceOnUse"><stop offset="0.49" stop-color="#d9584e"/><stop offset="1" stop-color="#da0700"/></linearGradient><linearGradient id="linear-gradient-3" x1="574.74" y1="7.69" x2="575.5" y2="6.38" gradientTransform="matrix(-0.94, -0.33, -0.33, 0.94, 587.49, 188.52)" gradientUnits="userSpaceOnUse"><stop offset="0" stop-color="#862331"/><stop offset="0.66" stop-color="#aa2533"/><stop offset="1" stop-color="#d60700"/></linearGradient><linearGradient id="Безымянный_градиент_10-2" x1="-11.7" y1="-191.12" x2="-9.73" y2="-191.12" gradientTransform="matrix(-0.93, 0.27, -0.26, -0.88, -16.92, -159.05)" xlink:href="#Безымянный_градиент_10"/></defs><title>logo2</title><path class="cls-1" d="M10.85,0,8.69,7.71l1.47,0L10.1,8H7L8.84,1.71l-3,3.08L5,1.94,3.35,8H.3l.09-.33H1.86l2-7.28L4,0H5.58L6.4,2.9,9.28,0Z"/><path class="cls-1" d="M14.65,2.89a.11.11,0,0,1,0,0L13.29,7.73h1L14.21,8H9.43l.06-.22h1l1.36-4.81q.06-.22.41-.22h2.11C14.55,2.71,14.65,2.77,14.65,2.89Zm-1.06,0h-.7L11.53,7.73h.7Z"/><path class="cls-1" d="M18.94,2.89a.11.11,0,0,1,0,0L18.62,4H17.57l.31-1.09h-.7L15.81,7.73h.7l.31-1.09h1.05l-.31,1.09h1L18.49,8H13.72l.06-.22h1l1.36-4.81c0-.15.18-.22.41-.22h2.11C18.84,2.71,18.94,2.77,18.94,2.89Z"/><path class="cls-1" d="M24.32,2.89s-.27,1-.81,2.88Q23.45,6,23.1,6H21.69l-.5,1.75h2.87L24,8H17.93L18,7.73h2.15L20.64,6H19.24c-.2,0-.3-.05-.3-.16s.27-1,.8-2.9q.06-.22.41-.22H24C24.22,2.71,24.32,2.77,24.32,2.89Zm-2.82,0h-.7L20,5.77h.7Zm1.77,0h-.7l-.81,2.84h.7Z"/><path class="cls-1" d="M28.84,2.71l-1.42,5h1L28.33,8h-2l.3-1-.88.6L25.59,8h-2l.06-.22h1l1.42-5h1.05L25.83,7.09l.89-.62,1.05-3.76Z"/><path class="cls-1" d="M33.06,2.89a.11.11,0,0,1,0,0l-.8,2.84q-.06.22-.41.22H30.44l-.5,1.75h2.74L32.62,8H27.84l.06-.22h1l1.42-5h2.46C33,2.71,33.06,2.77,33.06,2.89ZM32,2.93h-.7L30.5,5.77h.7Z"/><path class="cls-1" d="M42.61.09,40.48,7.62H42L41.87,8H38.81L40.6,1.77l-3,3.05L36.8,2,35.12,8H32.06l.06-.22,1.49,0L35.67.41l.08-.34h1.59l.82,2.86L41,.09Z"/><path class="cls-1" d="M49,2.89a.11.11,0,0,1,0,0l-.8,2.84q-.06.22-.41.22H46.39l-.5,1.75h2.74L48.57,8H43.79l.06-.22h1l1.42-5h2.46C48.92,2.71,49,2.77,49,2.89ZM48,2.93h-.7l-.81,2.84h.7Z"/><path class="cls-1" d="M54.4,2.89s-.27,1-.81,2.88q-.06.22-.41.22H51.77l-.5,1.75h2.87L54.08,8H48l.06-.22h2.15L50.72,6H49.32c-.2,0-.3-.05-.3-.16s.27-1,.8-2.9q.06-.22.41-.22H54.1C54.3,2.71,54.4,2.77,54.4,2.89Zm-2.82,0h-.7l-.79,2.84h.7Zm1.77,0h-.7l-.81,2.84h.7Z"/><polygon class="cls-2" points="43.16 5.79 42.92 5.07 43.8 3.95 43.16 5.79"/><polygon class="cls-1" points="43.16 5.79 43.8 5.38 43.8 3.95 43.16 5.79"/><polygon class="cls-3" points="43.16 5.79 42.92 5.07 43.81 3.95 43.16 5.79"/><polygon class="cls-4" points="43.16 5.79 42.37 5.76 41.49 4.57 43.16 5.79"/><polygon class="cls-1" points="43.16 5.79 42.92 5.07 41.49 4.57 43.16 5.79"/><polygon class="cls-1" points="43.16 5.79 42.91 6.49 41.49 6.88 43.16 5.79"/><polygon class="cls-5" points="43.16 5.79 42.37 5.76 41.49 6.88 43.16 5.79"/><polygon class="cls-6" points="43.16 5.79 43.8 6.26 43.79 7.68 43.16 5.79"/><polygon class="cls-1" points="43.16 5.79 42.91 6.49 43.79 7.68 43.16 5.79"/><polygon class="cls-7" points="43.16 5.79 43.8 5.38 45.22 5.88 43.16 5.79"/><polygon class="cls-1" points="43.16 5.79 43.8 6.26 45.22 5.88 43.16 5.79"/><polygon class="cls-8" points="43.16 5.79 42.92 5.07 41.49 4.57 43.16 5.79"/><polygon class="cls-9" points="43.16 5.79 42.37 5.76 41.49 4.57 43.16 5.79"/><polygon class="cls-10" points="43.17 5.8 42.9 6.46 41.5 6.87 43.17 5.8"/></svg>