<svg id="Слой_1" data-name="Слой 1" xmlns="http://www.w3.org/2000/svg" xmlns:xlink="http://www.w3.org/1999/xlink" viewBox="0 0 17 15"><defs><style>.cls-1{fill:url(#linear-gradient);}.cls-2{fill:#d9584e;}.cls-3{fill:url(#Безымянный_градиент_2);}.cls-4{fill:url(#linear-gradient-2);}.cls-5{fill:url(#Безымянный_градиент_14);}.cls-6{fill:url(#Безымянный_градиент_15);}.cls-7{fill:url(#Безымянный_градиент_10);}.cls-8{fill:none;}.cls-9{fill:url(#linear-gradient-3);}.cls-10{fill:url(#Безымянный_градиент_10-2);}</style><linearGradient id="linear-gradient" x1="37.04" y1="6.69" x2="41.05" y2="4.19" gradientTransform="matrix(1, 0, 0, 1, -30.8, -1.02)" gradientUnits="userSpaceOnUse"><stop offset="0" stop-color="#2b4b8c"/><stop offset="0.53" stop-color="#4071b8"/><stop offset="1" stop-color="#61acec"/></linearGradient><linearGradient id="Безымянный_градиент_2" x1="549.56" y1="4.19" x2="553.56" y2="6.69" gradientTransform="matrix(-1, 0, 0, 1, 559.81, -3.85)" gradientUnits="userSpaceOnUse"><stop offset="0" stop-color="#aa2533"/><stop offset="0.46" stop-color="#aa2533"/><stop offset="1" stop-color="#862331"/></linearGradient><linearGradient id="linear-gradient-2" x1="34.28" y1="9.66" x2="35.28" y2="7.6" gradientTransform="matrix(1, 0, 0, 1, -30.8, -1.02)" gradientUnits="userSpaceOnUse"><stop offset="0" stop-color="#2b4b8c"/><stop offset="1" stop-color="#4071b8"/></linearGradient><linearGradient id="Безымянный_градиент_14" x1="3.26" y1="11.67" x2="8.43" y2="11.67" gradientUnits="userSpaceOnUse"><stop offset="0.15" stop-color="#d9584e"/><stop offset="1" stop-color="#aa2533"/></linearGradient><linearGradient id="Безымянный_градиент_15" x1="8.43" y1="11.65" x2="13.67" y2="11.65" gradientUnits="userSpaceOnUse"><stop offset="0" stop-color="#da0700"/><stop offset="0.51" stop-color="#d9584e"/></linearGradient><linearGradient id="Безымянный_градиент_10" x1="39.19" y1="8.22" x2="47.6" y2="8.22" gradientTransform="matrix(1, 0, 0, 1, -30.8, -1.02)" gradientUnits="userSpaceOnUse"><stop offset="0.49" stop-color="#d9584e"/><stop offset="1" stop-color="#da0700"/></linearGradient><linearGradient id="linear-gradient-3" x1="693.95" y1="10.99" x2="697.17" y2="5.42" gradientTransform="matrix(-1, 0, 0, 1, 699.73, -4.52)" gradientUnits="userSpaceOnUse"><stop offset="0" stop-color="#862331"/><stop offset="0.66" stop-color="#aa2533"/><stop offset="1" stop-color="#d60700"/></linearGradient><linearGradient id="Безымянный_градиент_10-2" x1="44.55" y1="11.14" x2="52.96" y2="11.14" gradientTransform="matrix(-0.78, 0.57, -0.54, -0.74, 50.03, -7.64)" xlink:href="#Безымянный_градиент_10"/></defs><title>ul_pic</title><polygon class="cls-1" points="8.43 8.3 6.43 5.75 8.39 0 8.43 8.3"/><polygon class="cls-2" points="8.43 8.3 10.4 5.73 8.39 0 8.43 8.3"/><polygon class="cls-3" points="8.44 8.3 6.44 5.75 8.4 0 8.44 8.3"/><polygon class="cls-4" points="8.43 8.3 5.22 9.3 0 5.78 8.43 8.3"/><polygon class="cls-2" points="8.43 8.3 6.43 5.75 0 5.78 8.43 8.3"/><polygon class="cls-2" points="8.43 8.3 8.45 11.47 3.26 15.04 8.43 8.3"/><polygon class="cls-5" points="8.43 8.3 5.22 9.3 3.26 15.04 8.43 8.3"/><polygon class="cls-6" points="8.43 8.3 11.65 9.27 13.66 15 8.43 8.3"/><polygon class="cls-2" points="8.43 8.3 8.45 11.47 13.66 15 8.43 8.3"/><polygon class="cls-7" points="8.43 8.3 10.4 5.73 16.83 5.7 8.43 8.3"/><polygon class="cls-2" points="8.43 8.3 11.65 9.27 16.83 5.7 8.43 8.3"/><polygon class="cls-8" points="8.44 8.29 6.44 5.73 0.01 5.76 8.44 8.29"/><polygon class="cls-9" points="8.44 8.29 5.23 9.28 0.01 5.76 8.44 8.29"/><polygon class="cls-10" points="8.51 8.34 8.34 11.37 3.31 15.01 8.51 8.34"/></svg>